<svg xmlns="http://www.w3.org/2000/svg" width="480" height="300" viewBox="0 0 480 300" version="1.1"><path d="M 224.618 84.112 C 216.156 86.099, 207.644 91.150, 200.377 98.500 C 192.174 106.794, 190.502 110.575, 191.274 119.087 C 192.577 133.452, 204.052 147.191, 217.450 150.426 C 222.397 151.621, 233.866 151.181, 239.351 149.586 C 242.204 148.757, 246.679 146.661, 249.293 144.929 C 254.732 141.327, 262 131.817, 262 128.304 C 262 122.968, 254.136 110.367, 245.396 101.699 C 240.686 97.027, 239.835 95.716, 241.024 94.964 C 244.249 92.925, 262.683 94.783, 271.454 98.032 L 276.500 99.901 271.640 95.550 C 265.500 90.052, 258.975 86.489, 251.465 84.533 C 245.067 82.867, 230.872 82.644, 224.618 84.112 M 186.367 124.500 C 185.053 132.078, 185.468 142.848, 187.314 149.098 C 189.390 156.127, 196.068 162.716, 205.777 167.315 C 212.261 170.387, 212.962 170.500, 225.500 170.500 C 239.748 170.500, 243.913 169.348, 250.843 163.491 C 256.693 158.547, 262 147.684, 262 140.652 L 262 137.660 256.750 142.987 C 253.590 146.193, 248.912 149.545, 245 151.407 C 238.903 154.308, 237.787 154.500, 227 154.500 C 216.305 154.500, 215.123 154.302, 210.117 151.666 C 199.253 145.946, 191.631 136.448, 188.634 124.895 L 187.234 119.500 186.367 124.500" stroke="none" fill="#e5f2fb" fill-rule="evenodd"/><path d="M 229 78.691 C 218.576 80.436, 205.656 87.302, 197.426 95.471 C 188.860 103.974, 186.417 107.959, 183 119.002 C 181.049 125.303, 180.827 127.726, 181.273 137.866 C 182 154.426, 186.773 164.881, 198.698 176.036 C 216.201 192.410, 240.962 196.282, 261.889 185.919 C 278.533 177.677, 289.596 163.348, 293.591 144.858 C 295.129 137.740, 295.200 135.615, 294.144 128.308 C 292.204 114.888, 288.029 106.417, 278.500 96.566 C 264.990 82.598, 246.198 75.812, 229 78.691 M 224.618 84.112 C 216.156 86.099, 207.644 91.150, 200.377 98.500 C 192.174 106.794, 190.502 110.575, 191.274 119.087 C 192.577 133.452, 204.052 147.191, 217.450 150.426 C 222.397 151.621, 233.866 151.181, 239.351 149.586 C 242.204 148.757, 246.679 146.661, 249.293 144.929 C 254.732 141.327, 262 131.817, 262 128.304 C 262 122.968, 254.136 110.367, 245.396 101.699 C 240.686 97.027, 239.835 95.716, 241.024 94.964 C 244.249 92.925, 262.683 94.783, 271.454 98.032 L 276.500 99.901 271.640 95.550 C 265.500 90.052, 258.975 86.489, 251.465 84.533 C 245.067 82.867, 230.872 82.644, 224.618 84.112 M 186.367 124.500 C 185.053 132.078, 185.468 142.848, 187.314 149.098 C 189.390 156.127, 196.068 162.716, 205.777 167.315 C 212.261 170.387, 212.962 170.500, 225.500 170.500 C 239.748 170.500, 243.913 169.348, 250.843 163.491 C 256.693 158.547, 262 147.684, 262 140.652 L 262 137.660 256.750 142.987 C 253.590 146.193, 248.912 149.545, 245 151.407 C 238.903 154.308, 237.787 154.500, 227 154.500 C 216.305 154.500, 215.123 154.302, 210.117 151.666 C 199.253 145.946, 191.631 136.448, 188.634 124.895 L 187.234 119.500 186.367 124.500 M 209.750 207.823 C 208.391 208.074, 208 209.151, 208 212.643 C 208 216.734, 208.203 217.110, 210.250 216.820 C 211.799 216.600, 212.798 215.488, 213.457 213.250 C 213.983 211.463, 214.665 210, 214.973 210 C 215.280 210, 217.284 214.162, 219.425 219.250 C 225.244 233.080, 229.146 241, 230.140 241 C 230.920 241, 233.073 236.717, 237.428 226.500 C 244.693 209.456, 245.171 207, 241.223 207 C 238.170 207, 236.489 209.147, 233.589 216.750 C 232.068 220.738, 230.464 224, 230.026 224 C 229.587 224, 228.480 222.313, 227.565 220.250 C 226.651 218.188, 225.475 215.719, 224.952 214.764 C 224.428 213.809, 224 212.416, 224 211.669 C 224 207.927, 217.980 206.303, 209.750 207.823 M 247.450 207.947 C 246.905 208.491, 246.627 215.501, 246.798 224.395 C 247.077 238.879, 247.228 239.938, 249.096 240.531 C 253.391 241.894, 254 239.775, 254 223.485 C 254 210.482, 253.765 208.124, 252.418 207.607 C 250.168 206.743, 248.546 206.854, 247.450 207.947 M 256.698 207.636 C 256.314 208.019, 256 209.357, 256 210.609 C 256 212.572, 256.585 212.927, 260.250 213.193 L 264.500 213.500 264.778 226.654 C 265.073 240.589, 265.581 241.903, 270.112 240.464 C 271.745 239.946, 271.973 238.457, 272.221 226.692 L 272.500 213.500 276.310 213.186 C 279.793 212.899, 280.094 212.641, 279.810 210.186 L 279.500 207.500 268.448 207.219 C 262.369 207.065, 257.081 207.252, 256.698 207.636 M 283.667 207.667 C 283.300 208.033, 283 215.438, 283 224.121 L 283 239.909 286.250 240.378 C 289.104 240.789, 296.256 240.692, 301.143 240.174 C 302.047 240.078, 303.067 239.268, 303.410 238.373 C 304.542 235.425, 302.087 234, 295.878 234 L 290 234 290 230.052 L 290 226.105 295.250 225.802 C 300.103 225.523, 300.500 225.311, 300.500 223 C 300.500 220.685, 300.106 220.477, 295.191 220.196 L 289.881 219.891 290.191 216.696 C 290.498 213.525, 290.551 213.496, 296.922 213 C 303.670 212.475, 305.157 211.300, 302.473 208.616 C 301.246 207.389, 298.870 207, 292.595 207 C 288.051 207, 284.033 207.300, 283.667 207.667 M 179.217 210.308 C 174.092 213.730, 172.013 217.681, 172.013 224 C 172.013 234.992, 180.799 241.761, 192.273 239.609 C 198.755 238.393, 205 230.488, 205 223.500 C 205 218.548, 202.679 214.505, 197.814 210.980 C 192.526 207.149, 184.387 206.855, 179.217 210.308 M 181.923 216.923 C 178.135 220.711, 177.874 226.579, 181.316 230.581 C 183.172 232.739, 184.497 233.273, 188 233.273 C 193.623 233.273, 197 229.801, 197 224.021 C 197 215.046, 188.025 210.821, 181.923 216.923 M 188.250 250.668 C 182.613 250.889, 178 251.497, 178 252.020 C 178 253.147, 301.010 253.885, 302.433 252.767 C 302.947 252.363, 303.108 251.774, 302.791 251.458 C 302.106 250.773, 202.990 250.089, 188.250 250.668" stroke="none" fill="#136397" fill-rule="evenodd"/></svg>